<svg width="14" height="16" viewBox="0 0 14 16" fill="none" xmlns="http://www.w3.org/2000/svg">
<path d="M7.71293 0.2929L13.7129 6.2929C13.8062 6.38614 13.8801 6.49683 13.9306 6.61865C13.981 6.74047 14.007 6.87104 14.007 7.0029C14.007 7.13476 13.981 7.26533 13.9306 7.38715C13.8801 7.50897 13.8062 7.61966 13.7129 7.7129C13.6197 7.80614 13.509 7.8801 13.3872 7.93056C13.2654 7.98102 13.1348 8.00699 13.0029 8.00699C12.8711 8.00699 12.7405 7.98102 12.6187 7.93056C12.4969 7.8801 12.3862 7.80614 12.2929 7.7129L8.00293 3.4129L8.00293 15.0029C8.00293 15.2681 7.89757 15.5225 7.71003 15.71C7.5225 15.8975 7.26814 16.0029 7.00293 16.0029C6.73771 16.0029 6.48336 15.8975 6.29582 15.71C6.10829 15.5225 6.00293 15.2681 6.00293 15.0029L6.00293 3.4129L1.71293 7.7129C1.52462 7.9012 1.26923 8.00699 1.00293 8.00699C0.736626 8.00699 0.481232 7.9012 0.292928 7.7129C0.104624 7.5246 -0.00116386 7.2692 -0.00116388 7.0029C-0.00116389 6.7366 0.104624 6.4812 0.292928 6.2929L6.29293 0.2929C6.38589 0.199172 6.49649 0.124776 6.61835 0.0740067C6.74021 0.0232379 6.87092 -0.00289947 7.00293 -0.00289948C7.13494 -0.00289948 7.26565 0.0232379 7.3875 0.0740067C7.50936 0.124776 7.61996 0.199172 7.71293 0.2929Z" fill="#222221"/>
</svg>
